# xmcd
#
# Track frame offsets: 
#        150
#        16056
#        38259
#        57024
#        81795
#        97138
#        117217
#        133179
#        162412
#        183163
#        204092
#        233140
#        249422
#        264178
#        281781
#        301277
#        325522
#        346388
#
# Disc length: 4765 seconds
#
# Revision: 4
# Processed by: cddbd v1.5.2PL0 Copyright (c) Steve Scherf et al.
# Submitted via: ExactAudioCopy v1.3
#
DISCID=e4129b12
DTITLE=Various Artist - Akella Presents - Women's Blues - vol.5  CD1 
DTITLE=New!
DYEAR=2010
DGENRE=Blues
TTITLE0=BEVERLY SKEETE - Spooky Spooky
TTITLE1=ETTA JAMES - I'll Take Care of You
TTITLE2=BIG TIME SARAH - Ain't No Sunshine
TTITLE3=MARIA MULDAUR - Think About You
TTITLE4=DEBBIE DAVIES - She's Taking Notes
TTITLE5=DIANA KRALL - Temptation
TTITLE6=DEBORAH COLEMAN - You're With Me
TTITLE7=KELLY RICHEY - Nobody's Fault But Mine
TTITLE8=BONNY B. - I Don't Smoke
TTITLE9=MAVIS STAPLES - Some Day
TTITLE10=DIANE SCHUUR - I'm Ashhamed to Sing the Blues
TTITLE11=GRACE POTTER - Sweet Hands
TTITLE12=MICKEY CHAMPION - My Little Boy Blue
TTITLE13=CANDYE KANE - I Put A Hex On You
TTITLE14=SARAH VAUGHAN - Something
TTITLE15=MEENA - This Song Is For You
TTITLE16=RUTH BROWN - Good Day for the Blues
TTITLE17=DINAH WASHINGTON - Cry Me a River
EXTD=
EXTT0=
EXTT1=
EXTT2=
EXTT3=
EXTT4=
EXTT5=
EXTT6=
EXTT7=
EXTT8=
EXTT9=
EXTT10=
EXTT11=
EXTT12=
EXTT13=
EXTT14=
EXTT15=
EXTT16=
EXTT17=
PLAYORDER=
